<?xml version="1.0" encoding="UTF-8" standalone="no"?>
<!DOCTYPE svg PUBLIC "-//W3C//DTD SVG 1.1//EN" "http://www.w3.org/Graphics/SVG/1.1/DTD/svg11.dtd">
<svg width="100%" height="100%" viewBox="0 0 1905 1905" version="1.1" xmlns="http://www.w3.org/2000/svg" xmlns:xlink="http://www.w3.org/1999/xlink" xml:space="preserve" xmlns:serif="http://www.serif.com/" style="fill-rule:evenodd;clip-rule:evenodd;stroke-linejoin:round;stroke-miterlimit:2;">
    <g transform="matrix(2,0,0,2,0,0)">
        <g transform="matrix(0.867652,0,0,0.867652,60.0003,46.837)">
            <g>
                <path d="M758.57,897.774C769.672,905.274 784.771,899.474 788.07,886.574L804.57,821.574C805.871,816.474 802.07,811.574 796.771,811.574L685.771,811.574C679.07,811.574 675.371,819.274 679.47,824.474C707.371,859.874 738.172,883.974 758.57,897.774Z" style="fill:none;fill-rule:nonzero;stroke:black;stroke-width:28.81px;"/>
                <path d="M34.971,509.374C63.271,565.774 89.571,627.074 80.171,686.874C79.371,692.175 83.471,696.975 88.871,696.975L127.871,696.975C130.671,696.975 133.271,695.675 134.871,693.475C182.171,629.475 246.171,609.475 246.171,609.475C303.971,592.075 366.271,576.675 406.271,576.675C480.871,576.675 498.672,637.874 502.672,661.275C503.57,666.475 508.07,670.275 513.371,670.275C518.172,670.275 522.771,668.275 525.971,664.675L560.672,626.275C564.172,622.475 570.471,624.375 571.272,629.375C581.971,696.476 634.772,765.676 644.772,771.075C645.672,771.575 646.672,771.775 647.672,771.775L802.772,771.775C805.971,771.775 808.571,769.375 808.872,766.275C814.372,707.475 904.571,622.575 939.071,591.975C947.571,584.475 952.372,573.775 952.372,562.475L952.372,488.374C952.372,487.374 952.173,486.475 951.772,485.574L863.772,309.574C863.172,308.274 862.071,307.274 860.772,306.674C788.672,273.774 792.571,191.674 793.971,176.774C794.071,175.274 793.672,173.674 792.772,172.474L771.571,144.874C769.571,142.274 765.772,141.674 763.071,143.674L753.372,150.674C753.372,108.074 735.673,71.574 725.772,54.374C723.172,49.874 716.571,50.374 714.672,55.174L694.471,107.374C694.172,108.074 694.071,108.874 694.071,109.574C693.971,152.874 686.772,181.974 679.071,200.674C672.173,217.474 651.673,223.674 636.471,213.774C606.571,194.274 558.071,162.574 541.471,151.774C538.371,149.774 537.772,145.574 540.071,142.674L586.772,85.974C590.071,81.974 587.172,75.874 581.971,75.874L436.571,75.874C434.971,75.874 433.471,76.474 432.371,77.574L384.672,122.574C382.172,124.974 382.071,128.974 384.571,131.374L397.172,144.074C356.571,157.574 329.272,130.174 319.472,117.874C317.172,115.074 312.972,114.774 310.371,117.274L206.071,217.774C205.171,218.674 204.471,219.774 204.271,221.074C193.271,284.574 70.971,327.774 32.671,339.774C25.571,341.974 20.171,347.774 18.471,354.974L0.571,429.574C-0.529,434.274 -0.029,439.175 1.971,443.474C11.771,464.374 23.471,486.474 34.971,509.374Z" style="fill:none;fill-rule:nonzero;stroke:black;stroke-width:28.81px;"/>
            </g>
        </g>
    </g>
</svg>
