<?xml version="1.0" encoding="UTF-8" standalone="no"?>
<!DOCTYPE svg PUBLIC "-//W3C//DTD SVG 1.1//EN" "http://www.w3.org/Graphics/SVG/1.1/DTD/svg11.dtd">
<svg width="100%" height="100%" viewBox="0 0 969 204" version="1.1" xmlns="http://www.w3.org/2000/svg" xmlns:xlink="http://www.w3.org/1999/xlink" xml:space="preserve" xmlns:serif="http://www.serif.com/" style="fill-rule:evenodd;clip-rule:evenodd;stroke-linejoin:round;stroke-miterlimit:2;">
    <g transform="matrix(2,0,0,2,0,0)">
        <g>
            <g transform="matrix(0.099223,0,0,0.099223,10.3641,3.7015)">
                <path d="M758.57,897.774C769.672,905.274 784.771,899.474 788.07,886.574L804.57,821.574C805.871,816.474 802.07,811.574 796.771,811.574L685.771,811.574C679.07,811.574 675.371,819.274 679.47,824.474C707.371,859.874 738.172,883.974 758.57,897.774Z" style="fill:none;fill-rule:nonzero;stroke:black;stroke-width:30.23px;"/>
                <path d="M34.971,509.374C63.271,565.774 89.571,627.074 80.171,686.874C79.371,692.175 83.471,696.975 88.871,696.975L127.871,696.975C130.671,696.975 133.271,695.675 134.871,693.475C182.171,629.475 246.171,609.475 246.171,609.475C303.971,592.075 366.271,576.675 406.271,576.675C480.871,576.675 498.672,637.874 502.672,661.275C503.57,666.475 508.07,670.275 513.371,670.275C518.172,670.275 522.771,668.275 525.971,664.675L560.672,626.275C564.172,622.475 570.471,624.375 571.272,629.375C581.971,696.476 634.772,765.676 644.772,771.075C645.672,771.575 646.672,771.775 647.672,771.775L802.772,771.775C805.971,771.775 808.571,769.375 808.872,766.275C814.372,707.475 904.571,622.575 939.071,591.975C947.571,584.475 952.372,573.775 952.372,562.475L952.372,488.374C952.372,487.374 952.173,486.475 951.772,485.574L863.772,309.574C863.172,308.274 862.071,307.274 860.772,306.674C788.672,273.774 792.571,191.674 793.971,176.774C794.071,175.274 793.672,173.674 792.772,172.474L771.571,144.874C769.571,142.274 765.772,141.674 763.071,143.674L753.372,150.674C753.372,108.074 735.673,71.574 725.772,54.374C723.172,49.874 716.571,50.374 714.672,55.174L694.471,107.374C694.172,108.074 694.071,108.874 694.071,109.574C693.971,152.874 686.772,181.974 679.071,200.674C672.173,217.474 651.673,223.674 636.471,213.774C606.571,194.274 558.071,162.574 541.471,151.774C538.371,149.774 537.772,145.574 540.071,142.674L586.772,85.974C590.071,81.974 587.172,75.874 581.971,75.874L436.571,75.874C434.971,75.874 433.471,76.474 432.371,77.574L384.672,122.574C382.172,124.974 382.071,128.974 384.571,131.374L397.172,144.074C356.571,157.574 329.272,130.174 319.472,117.874C317.172,115.074 312.972,114.774 310.371,117.274L206.071,217.774C205.171,218.674 204.471,219.774 204.271,221.074C193.271,284.574 70.971,327.774 32.671,339.774C25.571,341.974 20.171,347.774 18.471,354.974L0.571,429.574C-0.529,434.274 -0.029,439.175 1.971,443.474C11.771,464.374 23.471,486.474 34.971,509.374Z" style="fill:none;fill-rule:nonzero;stroke:black;stroke-width:30.23px;"/>
            </g>
            <g transform="matrix(1,0,0,1,-2,28.1079)">
                <g transform="matrix(72,0,0,72,136.719,46.5661)">
                    <path d="M0.38,-0.265L0.338,-0.388C0.325,-0.427 0.312,-0.465 0.3,-0.501C0.288,-0.537 0.276,-0.575 0.265,-0.616L0.261,-0.616C0.25,-0.575 0.238,-0.537 0.226,-0.501C0.214,-0.465 0.201,-0.427 0.188,-0.388L0.146,-0.265L0.38,-0.265ZM0.393,-0.226L0.132,-0.226L0.054,-0L0.008,-0L0.24,-0.659L0.286,-0.659L0.518,-0L0.47,-0L0.393,-0.226Z" style="fill-rule:nonzero;"/>
                </g>
                <g transform="matrix(72,0,0,72,173.367,46.5661)">
                    <path d="M0.095,-0.659L0.141,-0.659L0.141,-0.258C0.141,-0.214 0.146,-0.178 0.156,-0.149C0.165,-0.119 0.178,-0.096 0.194,-0.079C0.21,-0.061 0.229,-0.048 0.25,-0.041C0.271,-0.034 0.293,-0.03 0.316,-0.03C0.34,-0.03 0.363,-0.034 0.385,-0.041C0.406,-0.048 0.425,-0.061 0.442,-0.079C0.458,-0.096 0.471,-0.119 0.481,-0.149C0.491,-0.178 0.496,-0.214 0.496,-0.258L0.496,-0.659L0.539,-0.659L0.539,-0.253C0.539,-0.202 0.533,-0.159 0.52,-0.125C0.507,-0.091 0.491,-0.064 0.47,-0.043C0.449,-0.023 0.426,-0.009 0.399,-0.001C0.372,0.008 0.345,0.012 0.316,0.012C0.288,0.012 0.261,0.008 0.234,-0.001C0.207,-0.009 0.184,-0.023 0.163,-0.043C0.142,-0.064 0.126,-0.091 0.114,-0.125C0.101,-0.159 0.095,-0.202 0.095,-0.253L0.095,-0.659Z" style="fill-rule:nonzero;"/>
                </g>
                <g transform="matrix(72,0,0,72,218.295,46.5661)">
                    <path d="M0.076,-0.119C0.1,-0.092 0.129,-0.07 0.162,-0.054C0.195,-0.038 0.231,-0.03 0.269,-0.03C0.32,-0.03 0.36,-0.042 0.389,-0.067C0.418,-0.091 0.433,-0.123 0.433,-0.162C0.433,-0.183 0.43,-0.2 0.424,-0.214C0.417,-0.228 0.409,-0.24 0.398,-0.251C0.387,-0.261 0.375,-0.27 0.361,-0.278C0.346,-0.285 0.331,-0.293 0.315,-0.3L0.215,-0.345C0.2,-0.351 0.185,-0.358 0.17,-0.367C0.154,-0.376 0.14,-0.387 0.127,-0.4C0.114,-0.412 0.103,-0.428 0.094,-0.446C0.085,-0.463 0.081,-0.484 0.081,-0.509C0.081,-0.533 0.086,-0.555 0.096,-0.575C0.105,-0.594 0.118,-0.611 0.136,-0.625C0.153,-0.64 0.173,-0.651 0.197,-0.659C0.22,-0.667 0.246,-0.671 0.273,-0.671C0.313,-0.671 0.348,-0.663 0.38,-0.648C0.41,-0.632 0.436,-0.613 0.456,-0.592L0.43,-0.561C0.411,-0.582 0.388,-0.598 0.362,-0.611C0.336,-0.623 0.306,-0.629 0.273,-0.629C0.229,-0.629 0.194,-0.618 0.167,-0.597C0.14,-0.576 0.127,-0.547 0.127,-0.511C0.127,-0.492 0.131,-0.475 0.138,-0.462C0.145,-0.449 0.155,-0.437 0.166,-0.428C0.177,-0.418 0.19,-0.409 0.203,-0.403C0.216,-0.396 0.229,-0.389 0.241,-0.384L0.341,-0.34C0.36,-0.332 0.377,-0.323 0.394,-0.313C0.411,-0.303 0.425,-0.291 0.438,-0.278C0.451,-0.265 0.461,-0.249 0.469,-0.231C0.476,-0.212 0.48,-0.19 0.48,-0.165C0.48,-0.14 0.475,-0.116 0.465,-0.095C0.455,-0.073 0.441,-0.054 0.423,-0.039C0.404,-0.023 0.382,-0.011 0.356,-0.002C0.33,0.007 0.301,0.012 0.269,0.012C0.221,0.012 0.178,0.003 0.141,-0.016C0.104,-0.034 0.072,-0.058 0.046,-0.087L0.076,-0.119Z" style="fill-rule:nonzero;"/>
                </g>
                <g transform="matrix(72,0,0,72,254.367,46.5661)">
                    <path d="M0.239,-0.619L0.029,-0.619L0.029,-0.659L0.495,-0.659L0.495,-0.619L0.285,-0.619L0.285,-0L0.239,-0L0.239,-0.619Z" style="fill-rule:nonzero;"/>
                </g>
                <g transform="matrix(72,0,0,72,292.095,46.5661)">
                    <path d="M0.274,-0.341C0.333,-0.341 0.378,-0.353 0.408,-0.377C0.44,-0.4 0.455,-0.436 0.455,-0.485C0.455,-0.534 0.439,-0.569 0.408,-0.59C0.377,-0.61 0.332,-0.62 0.274,-0.62L0.143,-0.62L0.143,-0.341L0.274,-0.341ZM0.462,-0L0.283,-0.303L0.143,-0.303L0.143,-0L0.097,-0L0.097,-0.659L0.286,-0.659C0.319,-0.659 0.348,-0.656 0.375,-0.65C0.402,-0.643 0.424,-0.633 0.443,-0.619C0.462,-0.605 0.476,-0.587 0.487,-0.565C0.497,-0.543 0.502,-0.516 0.502,-0.485C0.502,-0.432 0.487,-0.391 0.457,-0.361C0.426,-0.331 0.385,-0.313 0.333,-0.306L0.515,-0L0.462,-0Z" style="fill-rule:nonzero;"/>
                </g>
                <g transform="matrix(72,0,0,72,331.695,46.5661)">
                    <path d="M0.38,-0.265L0.338,-0.388C0.325,-0.427 0.312,-0.465 0.3,-0.501C0.288,-0.537 0.276,-0.575 0.265,-0.616L0.261,-0.616C0.25,-0.575 0.238,-0.537 0.226,-0.501C0.214,-0.465 0.201,-0.427 0.188,-0.388L0.146,-0.265L0.38,-0.265ZM0.393,-0.226L0.132,-0.226L0.054,-0L0.008,-0L0.24,-0.659L0.286,-0.659L0.518,-0L0.47,-0L0.393,-0.226Z" style="fill-rule:nonzero;"/>
                </g>
                <g transform="matrix(72,0,0,72,369.567,46.5661)">
                    <path d="M0.097,-0.659L0.143,-0.659L0.143,-0.04L0.447,-0.04L0.447,-0L0.097,-0L0.097,-0.659Z" style="fill-rule:nonzero;"/>
                </g>
                <g transform="matrix(72,0,0,72,403.191,46.5661)">
                    <rect x="0.097" y="-0.659" width="0.046" height="0.659" style="fill-rule:nonzero;"/>
                </g>
                <g transform="matrix(72,0,0,72,420.471,46.5661)">
                    <path d="M0.076,-0.119C0.1,-0.092 0.129,-0.07 0.162,-0.054C0.195,-0.038 0.231,-0.03 0.269,-0.03C0.32,-0.03 0.36,-0.042 0.389,-0.067C0.418,-0.091 0.433,-0.123 0.433,-0.162C0.433,-0.183 0.43,-0.2 0.424,-0.214C0.417,-0.228 0.409,-0.24 0.398,-0.251C0.387,-0.261 0.375,-0.27 0.361,-0.278C0.346,-0.285 0.331,-0.293 0.315,-0.3L0.215,-0.345C0.2,-0.351 0.185,-0.358 0.17,-0.367C0.154,-0.376 0.14,-0.387 0.127,-0.4C0.114,-0.412 0.103,-0.428 0.094,-0.446C0.085,-0.463 0.081,-0.484 0.081,-0.509C0.081,-0.533 0.086,-0.555 0.096,-0.575C0.105,-0.594 0.118,-0.611 0.136,-0.625C0.153,-0.64 0.173,-0.651 0.197,-0.659C0.22,-0.667 0.246,-0.671 0.273,-0.671C0.313,-0.671 0.348,-0.663 0.38,-0.648C0.41,-0.632 0.436,-0.613 0.456,-0.592L0.43,-0.561C0.411,-0.582 0.388,-0.598 0.362,-0.611C0.336,-0.623 0.306,-0.629 0.273,-0.629C0.229,-0.629 0.194,-0.618 0.167,-0.597C0.14,-0.576 0.127,-0.547 0.127,-0.511C0.127,-0.492 0.131,-0.475 0.138,-0.462C0.145,-0.449 0.155,-0.437 0.166,-0.428C0.177,-0.418 0.19,-0.409 0.203,-0.403C0.216,-0.396 0.229,-0.389 0.241,-0.384L0.341,-0.34C0.36,-0.332 0.377,-0.323 0.394,-0.313C0.411,-0.303 0.425,-0.291 0.438,-0.278C0.451,-0.265 0.461,-0.249 0.469,-0.231C0.476,-0.212 0.48,-0.19 0.48,-0.165C0.48,-0.14 0.475,-0.116 0.465,-0.095C0.455,-0.073 0.441,-0.054 0.423,-0.039C0.404,-0.023 0.382,-0.011 0.356,-0.002C0.33,0.007 0.301,0.012 0.269,0.012C0.221,0.012 0.178,0.003 0.141,-0.016C0.104,-0.034 0.072,-0.058 0.046,-0.087L0.076,-0.119Z" style="fill-rule:nonzero;"/>
                </g>
            </g>
        </g>
    </g>
</svg>
